<svg width="212" height="34" viewBox="0 0 212 34" fill="none" xmlns="http://www.w3.org/2000/svg">
<g clip-path="url(#clip0_8_16)">
<path d="M160.658 30.3333C160.29 30.333 159.93 30.2227 159.625 30.0167L153.408 25.85C153.378 25.8289 153.341 25.8175 153.304 25.8175C153.267 25.8175 153.231 25.8289 153.2 25.85L146.983 30.0167C146.671 30.2251 146.303 30.3337 145.928 30.3279C145.552 30.3221 145.188 30.2023 144.882 29.9844C144.576 29.7665 144.344 29.4608 144.216 29.1078C144.089 28.7549 144.071 28.3714 144.167 28.0083L146.208 20.8083C146.218 20.7721 146.217 20.7339 146.205 20.6983C146.193 20.6628 146.171 20.6315 146.142 20.6083L140.258 15.9833C139.949 15.7526 139.719 15.4307 139.601 15.0628C139.484 14.6949 139.484 14.2995 139.603 13.9319C139.721 13.5644 139.952 13.2431 140.262 13.0132C140.573 12.7833 140.947 12.6563 141.333 12.65L148.833 12.3667C148.87 12.3641 148.906 12.351 148.935 12.3288C148.965 12.3066 148.987 12.2764 149 12.2417L151.583 5.21666C151.714 4.86053 151.95 4.55301 152.261 4.33574C152.572 4.11848 152.942 4.00195 153.321 4.00195C153.7 4.00195 154.07 4.11848 154.381 4.33574C154.692 4.55301 154.928 4.86053 155.058 5.21666L157.642 12.2417C157.654 12.2764 157.677 12.3066 157.707 12.3288C157.736 12.351 157.771 12.3641 157.808 12.3667L165.308 12.65C165.695 12.6563 166.069 12.7833 166.379 13.0132C166.69 13.2431 166.92 13.5644 167.039 13.9319C167.157 14.2995 167.158 14.6949 167.04 15.0628C166.923 15.4307 166.693 15.7526 166.383 15.9833L160.5 20.6083C160.47 20.6308 160.447 20.662 160.435 20.6978C160.423 20.7336 160.423 20.7722 160.433 20.8083L162.475 28.0083C162.547 28.2845 162.554 28.5735 162.496 28.8528C162.438 29.1322 162.316 29.3944 162.141 29.6193C161.965 29.8441 161.74 30.0254 161.483 30.1493C161.226 30.2731 160.944 30.3361 160.658 30.3333ZM153.308 24.15C153.677 24.1613 154.034 24.2832 154.333 24.5L160.55 28.6667C160.582 28.6906 160.62 28.7037 160.659 28.704C160.699 28.7043 160.738 28.6918 160.77 28.6684C160.801 28.645 160.825 28.6118 160.836 28.574C160.848 28.5361 160.847 28.4955 160.833 28.4583L158.792 21.2583C158.691 20.9051 158.699 20.53 158.813 20.181C158.927 19.8321 159.143 19.5253 159.433 19.3L165.317 14.675C165.349 14.6525 165.373 14.6202 165.385 14.583C165.398 14.5458 165.398 14.5056 165.386 14.4683C165.374 14.431 165.35 14.3986 165.318 14.3758C165.286 14.353 165.248 14.341 165.208 14.3417L157.708 14.0583C157.341 14.044 156.986 13.9206 156.69 13.704C156.393 13.4873 156.167 13.1871 156.042 12.8417L153.458 5.81666C153.447 5.77936 153.423 5.74676 153.392 5.72361C153.36 5.70046 153.322 5.68797 153.283 5.68797C153.244 5.68797 153.206 5.70046 153.175 5.72361C153.143 5.74676 153.12 5.77936 153.108 5.81666L150.55 12.8333C150.424 13.1787 150.199 13.4789 149.902 13.6956C149.605 13.9123 149.251 14.0357 148.883 14.05L141.383 14.3333C141.344 14.3327 141.306 14.3447 141.274 14.3674C141.242 14.3902 141.218 14.4227 141.206 14.46C141.194 14.4973 141.194 14.5375 141.206 14.5747C141.219 14.6119 141.243 14.6441 141.275 14.6667L147.167 19.3C147.456 19.526 147.671 19.8328 147.785 20.1815C147.9 20.5303 147.908 20.9051 147.808 21.2583L145.775 28.4583C145.763 28.4944 145.763 28.5334 145.775 28.5695C145.787 28.6056 145.81 28.6368 145.842 28.6583C145.872 28.6842 145.91 28.6983 145.95 28.6983C145.99 28.6983 146.028 28.6842 146.058 28.6583L152.275 24.4917C152.579 24.2901 152.935 24.1829 153.3 24.1833L153.308 24.15Z" fill="white"/>
</g>
<g clip-path="url(#clip1_8_16)">
<path d="M204.658 32.3333C204.29 32.333 203.93 32.2227 203.625 32.0167L197.408 27.85C197.378 27.8289 197.341 27.8175 197.304 27.8175C197.267 27.8175 197.231 27.8289 197.2 27.85L190.983 32.0167C190.671 32.2251 190.303 32.3337 189.928 32.3279C189.552 32.3221 189.188 32.2023 188.882 31.9844C188.576 31.7665 188.344 31.4608 188.216 31.1078C188.089 30.7549 188.071 30.3714 188.167 30.0083L190.208 22.8083C190.218 22.7721 190.217 22.7339 190.205 22.6983C190.193 22.6628 190.171 22.6315 190.142 22.6083L184.258 17.9833C183.949 17.7526 183.719 17.4307 183.601 17.0628C183.484 16.6949 183.484 16.2995 183.603 15.9319C183.721 15.5644 183.952 15.2431 184.262 15.0132C184.573 14.7833 184.947 14.6563 185.333 14.65L192.833 14.3667C192.87 14.3641 192.906 14.351 192.935 14.3288C192.965 14.3066 192.987 14.2764 193 14.2417L195.583 7.21666C195.714 6.86053 195.95 6.55301 196.261 6.33574C196.572 6.11848 196.942 6.00195 197.321 6.00195C197.7 6.00195 198.07 6.11848 198.381 6.33574C198.692 6.55301 198.928 6.86053 199.058 7.21666L201.642 14.2417C201.654 14.2764 201.677 14.3066 201.707 14.3288C201.736 14.351 201.771 14.3641 201.808 14.3667L209.308 14.65C209.695 14.6563 210.069 14.7833 210.379 15.0132C210.69 15.2431 210.92 15.5644 211.039 15.9319C211.157 16.2995 211.158 16.6949 211.04 17.0628C210.923 17.4307 210.693 17.7526 210.383 17.9833L204.5 22.6083C204.47 22.6308 204.447 22.662 204.435 22.6978C204.423 22.7336 204.423 22.7722 204.433 22.8083L206.475 30.0083C206.547 30.2845 206.554 30.5735 206.496 30.8528C206.438 31.1322 206.316 31.3944 206.141 31.6193C205.965 31.8441 205.74 32.0254 205.483 32.1493C205.226 32.2731 204.944 32.3361 204.658 32.3333ZM197.308 26.15C197.677 26.1613 198.034 26.2832 198.333 26.5L204.55 30.6667C204.582 30.6906 204.62 30.7037 204.659 30.704C204.699 30.7043 204.738 30.6918 204.77 30.6684C204.801 30.645 204.825 30.6118 204.836 30.574C204.848 30.5361 204.847 30.4955 204.833 30.4583L202.792 23.2583C202.691 22.9051 202.699 22.53 202.813 22.181C202.927 21.8321 203.143 21.5253 203.433 21.3L209.317 16.675C209.349 16.6525 209.373 16.6202 209.385 16.583C209.398 16.5458 209.398 16.5056 209.386 16.4683C209.374 16.431 209.35 16.3986 209.318 16.3758C209.286 16.353 209.248 16.341 209.208 16.3417L201.708 16.0583C201.341 16.044 200.986 15.9206 200.69 15.704C200.393 15.4873 200.167 15.1871 200.042 14.8417L197.458 7.81666C197.447 7.77936 197.423 7.74676 197.392 7.72361C197.36 7.70046 197.322 7.68797 197.283 7.68797C197.244 7.68797 197.206 7.70046 197.175 7.72361C197.143 7.74676 197.12 7.77936 197.108 7.81666L194.55 14.8333C194.424 15.1787 194.199 15.4789 193.902 15.6956C193.605 15.9123 193.251 16.0357 192.883 16.05L185.383 16.3333C185.344 16.3327 185.306 16.3447 185.274 16.3674C185.242 16.3902 185.218 16.4227 185.206 16.46C185.194 16.4973 185.194 16.5375 185.206 16.5747C185.219 16.6119 185.243 16.6441 185.275 16.6667L191.167 21.3C191.456 21.526 191.671 21.8328 191.785 22.1815C191.9 22.5303 191.908 22.9051 191.808 23.2583L189.775 30.4583C189.763 30.4944 189.763 30.5334 189.775 30.5695C189.787 30.6056 189.81 30.6368 189.842 30.6583C189.872 30.6842 189.91 30.6983 189.95 30.6983C189.99 30.6983 190.028 30.6842 190.058 30.6583L196.275 26.4917C196.579 26.2901 196.935 26.1829 197.3 26.1833L197.308 26.15Z" fill="white"/>
</g>
<path d="M16 2L11.45 11.22L1.28003 12.69L8.64003 19.87L6.90003 30L16 25.22L25.1 30L23.36 19.87L30.72 12.7L20.55 11.22L16 2Z" fill="#FFEA2B"/>
<path d="M62 2L57.45 11.22L47.28 12.69L54.64 19.87L52.9 30L62 25.22L71.1 30L69.36 19.87L76.72 12.7L66.55 11.22L62 2Z" fill="#FFEA2B"/>
<path d="M108 2L103.45 11.22L93.28 12.69L100.64 19.87L98.9 30L108 25.22L117.1 30L115.36 19.87L122.72 12.7L112.55 11.22L108 2Z" fill="#FFEA2B"/>
<defs>
<clipPath id="clip0_8_16">
<rect width="30" height="30" fill="white" transform="translate(138 2)"/>
</clipPath>
<clipPath id="clip1_8_16">
<rect width="30" height="30" fill="white" transform="translate(182 4)"/>
</clipPath>
</defs>
</svg>
